# xmcd CD database file
#
# Track frame offsets:
#	150
#	19170
#	41215
#	59863
#	82810
#	88807
#	107492
#	126001
#	141171
#	161520
#	190329
#	204639
#	234014
#	254759
#
# Disc length: 3523 seconds
#
# Revision: 4
# Processed by: cddbd v1.5.2PL0 Copyright (c) Steve Scherf et al.
# Submitted via: CDex 1.70beta3
#
DISCID=c30dc10e
DTITLE=織田哲郎 - GROWING UP 1983-1989 Disc 3
DYEAR=2008
DGENRE=JPop
TTITLE0=SEASON
TTITLE1=夜の影
TTITLE2=夏のかけら -Always on my mind-
TTITLE3=時の河辺
TTITLE4=マジョリカ(inst.)
TTITLE5=HOT NIGHT!
TTITLE6=LOVERS
TTITLE7=YOU ARE NOT ALONE
TTITLE8=SHELTER OF SOUL
TTITLE9=TWO HEARTS
TTITLE10=空蝉
TTITLE11=CANDLE IN THE RAIN
TTITLE12=IN THE DREAM
TTITLE13=晩夏
EXTD=YEAR: 2008
EXTT0=
EXTT1=
EXTT2=
EXTT3=
EXTT4=
EXTT5=
EXTT6=
EXTT7=
EXTT8=
EXTT9=
EXTT10=
EXTT11=
EXTT12=
EXTT13=
PLAYORDER=
